:version 1.10
:name ASF
:units
  mass 1
  length 1
  angle deg
:documentation
  ASF file generated by Kaydara
:root
  axis xyz
  order  tx ty tz rx ry rz
  position 0 0 0
  orientation 0 0 0
:bonedata
  begin
    id 1
    name RightUpLegDummy
    direction -0.65628 -0.754516 0.00165102
    length 4.76918
    axis 0 0 0 xyz
  end
  begin
    id 2
    name RightUpLeg
    direction -0.145584 -0.923362 0.355256
    length 17.9961
    axis -24.7611 -13.1006 1.78531 xyz
    dof rx ry rz
  end
  begin
    id 3
    name RightLeg
    direction 0.263379 0.172355 -0.949171
    length 13.3386
    axis 89.6202 -21.1929 12.3855 xyz
    dof rx ry rz
  end
  begin
    id 4
    name RightFoot
    direction 0.224283 -0.968777 -0.105675
    length 5.86697
    axis 56.995 -39.6905 17.3365 xyz
    dof rx ry rz
  end
  begin
    id 5
    name RightToes
    direction -0.0806345 -0.9037 0.420506
    length 4.75197
    axis 146.825 -39.7828 17.6019 xyz
    dof rx ry rz
  end
  begin
    id 6
    name SpineDummy
    direction -3.39852e-014 1 9.33296e-014
    length 8.13779
    axis 0 0 0 xyz
  end
  begin
    id 7
    name Spine
    direction -0.156609 0.733703 0.661176
    length 7.14978
    axis 41.2365 5.68757 17.0844 xyz
    dof rx ry rz
  end
  begin
    id 8
    name Spine1
    direction 0 0 0
    length 0
    axis 42.8809 47.8308 -3.36039 xyz
    dof rx ry rz
  end
  begin
    id 9
    name HEadDummy
    direction 0.546431 0.701947 0.456819
    length 3.55512
    axis 42.8809 47.8308 -3.36039 xyz
  end
  begin
    id 10
    name HEad
    direction 0.23444 0.828559 0.508457
    length 7.35827
    axis 51.1864 49.2662 27.4903 xyz
    dof rx ry rz
  end
  begin
    id 11
    name LeftShoulder1Dummy
    direction 0.431183 0.475873 -0.766568
    length 2.49352
    axis 42.8809 47.8308 -3.36039 xyz
  end
  begin
    id 12
    name LeftShoulder1
    direction 0.268187 -0.383402 -0.883786
    length 4.48604
    axis -119.517 0.106469 35.1736 xyz
    dof rx ry rz
  end
  begin
    id 13
    name LeftArm
    direction 0.380567 -0.703221 -0.600541
    length 10.1142
    axis -5.41825 36.2925 7.8293 xyz
    dof rx ry rz
  end
  begin
    id 14
    name LeftForeArm
    direction 0.541071 -0.732356 -0.413396
    length 9.39839
    axis 4.65387 33.7604 7.81644 xyz
    dof rx ry rz
  end
  begin
    id 15
    name LeftHand
    direction 0.847511 -0.389379 -0.360707
    length 3.66142
    axis 7.65593 21.1436 -24.6758 xyz
    dof rx ry rz
  end
  begin
    id 16
    name RightShoulderDummy
    direction -0.692546 0.541855 0.476208
    length 2.49352
    axis 42.8809 47.8308 -3.36039 xyz
  end
  begin
    id 17
    name RightShoulder
    direction -0.870808 -0.316653 0.376065
    length 4.48602
    axis 141.571 51.133 -100.254 xyz
    dof rx ry rz
  end
  begin
    id 18
    name RightArm
    direction 0.366897 -0.87275 0.322015
    length 10.1142
    axis 92.3258 71.2036 138.917 xyz
    dof rx ry rz
  end
  begin
    id 19
    name RightForeArm
    direction 0.702487 -0.694568 0.155197
    length 9.39835
    axis 153.863 41.5092 -176.604 xyz
    dof rx ry rz
  end
  begin
    id 20
    name RightHand
    direction 0.79502 -0.601276 0.0800636
    length 3.66142
    axis 154.247 4.59222 142.9 xyz
    dof rx ry rz
  end
  begin
    id 21
    name LeftUpLegDummy
    direction 0.65628 -0.754516 0.00165102
    length 4.76919
    axis 0 0 0 xyz
  end
  begin
    id 22
    name LeftUpLeg
    direction -0.1277 -0.689368 0.713067
    length 17.9961
    axis -48.3385 -17.8675 0.791927 xyz
    dof rx ry rz
  end
  begin
    id 23
    name LeftLeg
    direction 0.109849 -0.991246 -0.0732378
    length 13.3386
    axis -2.05791 -7.30784 1.72042 xyz
    dof rx ry rz
  end
  begin
    id 24
    name LeftFoot
    direction 0.0448355 -0.272614 0.961078
    length 5.86697
    axis -18.7733 -7.89606 10.2113 xyz
    dof rx ry rz
  end
  begin
    id 25
    name LeftToes
    direction -0.18506 0.293668 0.937823
    length 4.75197
    axis 71.2267 -7.89606 10.2113 xyz
    dof rx ry rz
  end
:hierarchy
  begin
    root RightUpLegDummy SpineDummy LeftUpLegDummy
    RightUpLegDummy RightUpLeg
    RightUpLeg RightLeg
    RightLeg RightFoot
    RightFoot RightToes
    SpineDummy Spine
    Spine Spine1
    Spine1 HEadDummy LeftShoulder1Dummy RightShoulderDummy
    HEadDummy HEad
    LeftShoulder1Dummy LeftShoulder1
    LeftShoulder1 LeftArm
    LeftArm LeftForeArm
    LeftForeArm LeftHand
    RightShoulderDummy RightShoulder
    RightShoulder RightArm
    RightArm RightForeArm
    RightForeArm RightHand
    LeftUpLegDummy LeftUpLeg
    LeftUpLeg LeftLeg
    LeftLeg LeftFoot
    LeftFoot LeftToes
  end

:SAMPLES-PER-SECOND 30
:FULLY-SPECIFIED
:DEGREES
103
root  -3.22416 37.8455 0.445512 -177.26 -38.6384 174.062
RightUpLeg  -3.12168 12.5527 7.29299
RightLeg  -27.6211 -20.5076 -0.107977
RightFoot  14.0886 2.28288 -10.3765
RightToes  -1.27222e-014 -6.36111e-015 6.36111e-015
Spine  -20.7385 -13.8016 -10.8198
Spine1  4.84438 -10.9276 34.0431
HEad  9.6233 -52.4147 -9.33386
LeftShoulder1  6.36111e-015 -1.33558e-015 6.49777e-015
LeftArm  6.13939 -20.9279 -24.6697
LeftForeArm  -40.7003 -38.7903 14.5757
LeftHand  -3.40802 -8.71262 -7.79926
RightShoulder  -4.77083e-015 -6.36111e-015 -3.18055e-015
RightArm  67.0462 -22.9417 -18.952
RightForeArm  0.0789414 -1.17882 8.41803
RightHand  -1.60259 3.81476 10.0602
LeftUpLeg  20.6791 25.0226 7.62518
LeftLeg  -4.65463 -0.968617 -0.753064
LeftFoot  3.77711 1.97001 -5.92467
LeftToes  1.27222e-014 -5.20697e-012 1.80337e-011
104
root  -3.86004 38.2693 1.04787 -178.631 -31.9019 174.488
RightUpLeg  -4.07341 14.4933 11.8651
RightLeg  -37.9844 -15.8665 -1.35525
RightFoot  13.4319 1.89666 -9.51855
RightToes  -1.27222e-014 -6.36111e-015 6.36111e-015
Spine  -21.5178 -16.9794 -13.5383
Spine1  2.84709 -12.4947 38.5326
HEad  11.3386 -44.8501 -10.6268
LeftShoulder1  6.36111e-015 -1.33558e-015 6.49777e-015
LeftArm  -2.34559 -14.1188 -14.8626
LeftForeArm  -45.5152 -39.0109 15.9312
LeftHand  -3.4591 -8.87196 -7.79085
RightShoulder  -4.77083e-015 -6.36111e-015 -3.18055e-015
RightArm  76.213 -24.632 -9.72571
RightForeArm  -10.2884 -11.434 0.804988
RightHand  -1.73375 5.73566 9.59769
LeftUpLeg  22.3525 18.5109 3.85767
LeftLeg  -1.08561 -2.68222 -0.545747
LeftFoot  3.41871 2.57599 -7.82494
LeftToes  1.27222e-014 -5.20697e-012 1.80337e-011
105
root  -4.51299 38.4279 1.71246 -179.687 -24.6156 174.729
RightUpLeg  -4.73888 16.6703 14.8344
RightLeg  -52.5232 -14.4469 -1.55324
RightFoot  11.9995 2.12736 -9.48498
RightToes  -1.27222e-014 -6.36111e-015 6.36111e-015
Spine  -22.0006 -19.1112 -15.1532
Spine1  0.276656 -13.3379 43.6011
HEad  10.9024 -37.6337 -10.1525
LeftShoulder1  6.36111e-015 -1.33558e-015 6.49777e-015
LeftArm  -9.56715 -8.42294 -5.5071
LeftForeArm  -49.162 -39.0175 16.6978
LeftHand  -3.36204 -8.56712 -7.39757
RightShoulder  -4.77083e-015 -6.36111e-015 -3.18055e-015
RightArm  85.5744 -24.1586 -8.41345
RightForeArm  -18.2846 -18.2721 -5.43373
RightHand  -1.86317 7.59069 8.93292
LeftUpLeg  24.9173 16.2187 3.24587
LeftLeg  5.16513 0.923298 0.692919
LeftFoot  2.07611 1.82868 -5.76524
LeftToes  1.27222e-014 -5.20697e-012 1.80337e-011
106
root  -5.14923 38.3524 2.43632 179.914 -17.9705 174.823
RightUpLeg  -4.49115 18.318 16.715
RightLeg  -70.0487 -12.8396 -2.48933
RightFoot  9.60438 3.09791 -10.5378
RightToes  -1.27222e-014 -6.36111e-015 6.36111e-015
Spine  -22.5958 -20.4688 -15.6169
Spine1  -2.01398 -13.8832 48.3532
HEad  10.3697 -31.5313 -9.62452
LeftShoulder1  6.36111e-015 -1.33558e-015 6.49777e-015
LeftArm  -16.7898 -4.98998 3.16246
LeftForeArm  -50.6592 -39.7721 18.1004
LeftHand  -3.30522 -8.39189 -7.08896
RightShoulder  -4.77083e-015 -6.36111e-015 -3.18055e-015
RightArm  91.4629 -16.6525 -19.5908
RightForeArm  -21.5556 -13.702 -7.53286
RightHand  -1.84162 8.40288 7.02079
LeftUpLeg  29.1074 16.5276 5.97916
LeftLeg  8.42519 4.90197 2.23959
LeftFoot  2.66858 2.26154 -7.01565
LeftToes  1.27222e-014 -5.20697e-012 1.80337e-011
107
root  -5.78242 38.0706 3.06806 179.54 -12.5603 174.276
RightUpLeg  -2.82438 19.8095 17.5103
RightLeg  -87.1293 -11.7875 -3.51189
RightFoot  13.011 3.13706 -11.5622
RightToes  -1.27222e-014 -6.36111e-015 6.36111e-015
Spine  -23.0155 -22.6872 -16.6309
Spine1  -3.36179 -15.0964 51.8674
HEad  10.4899 -25.6984 -10.2303
LeftShoulder1  6.36111e-015 -1.33558e-015 6.49777e-015
LeftArm  -24.8168 -3.26145 10.7021
LeftForeArm  -51.215 -41.0683 20.2043
LeftHand  -3.23715 -8.1805 -7.53549
RightShoulder  -4.77083e-015 -6.36111e-015 -3.18055e-015
RightArm  95.2676 -7.28174 -28.0166
RightForeArm  -24.4393 -9.48685 -9.88231
RightHand  -1.58548 8.07151 3.12183
LeftUpLeg  35.5539 17.1368 9.18947
LeftLeg  5.94122 1.28413 0.842633
LeftFoot  0.170951 3.90268 -13.036
LeftToes  1.27222e-014 -5.20697e-012 1.80337e-011
108
root  -6.40718 37.5848 3.6365 178.581 -7.54832 173.051
RightUpLeg  -1.82004 20.8624 17.8007
RightLeg  -96.7145 -11.7244 -1.12225
RightFoot  20.2847 4.55817 -15.4721
RightToes  -1.27222e-014 -6.36111e-015 6.36111e-015
Spine  -22.4684 -25.0664 -18.1677
Spine1  -4.45745 -16.4404 54.1344
HEad  10.3804 -20.3676 -10.9767
LeftShoulder1  6.36111e-015 -1.33558e-015 6.49777e-015
LeftArm  -32.9644 -2.77691 15.928
LeftForeArm  -52.7574 -42.7353 23.3598
LeftHand  -3.067 -7.64163 -7.99577
RightShoulder  -4.77083e-015 -6.36111e-015 -3.18055e-015
RightArm  96.5738 1.71155 -34.2144
RightForeArm  -24.5054 -4.22162 -12.7782
RightHand  -1.12195 6.72702 -0.713583
LeftUpLeg  42.5765 18.9983 11.3671
LeftLeg  -0.272294 -7.10849 -1.083
LeftFoot  -7.91048 4.02611 -17.8255
LeftToes  1.27222e-014 -5.20697e-012 1.80337e-011
109
root  -7.01273 37.1864 4.18046 177.462 -2.98836 170.893
RightUpLeg  -3.11717 23.4587 16.9874
RightLeg  -96.1386 -11.835 3.1508
RightFoot  24.0113 7.53489 -20.383
RightToes  -1.27222e-014 -6.36111e-015 6.36111e-015
Spine  -20.6255 -27.147 -20.4624
Spine1  -5.68484 -17.3673 55.5136
HEad  9.61953 -17.2386 -10.525
LeftShoulder1  6.36111e-015 -1.33558e-015 6.49777e-015
LeftArm  -39.5957 -4.03541 17.2747
LeftForeArm  -56.878 -44.6298 28.4546
LeftHand  -2.8517 -6.97576 -7.70173
RightShoulder  -4.77083e-015 -6.36111e-015 -3.18055e-015
RightArm  96.0075 7.32546 -39.6286
RightForeArm  -22.8696 0.81484 -15.3416
RightHand  -0.814478 5.54861 -1.86762
LeftUpLeg  46.3528 23.459 12.6714
LeftLeg  -4.31815 -11.3288 -1.26515
LeftFoot  -13.301 3.18273 -17.9113
LeftToes  1.27222e-014 -5.20697e-012 1.80337e-011
110
root  -7.52505 37.1861 4.47206 176.693 -1.29422 168.628
RightUpLeg  -5.17122 25.46 14.6042
RightLeg  -89.5695 -12.8669 4.22149
RightFoot  22.1244 7.50303 -20.1836
RightToes  -1.27222e-014 -6.36111e-015 6.36111e-015
Spine  -18.8517 -29.5643 -22.7827
Spine1  -6.47582 -18.676 56.9117
HEad  9.1571 -16.4475 -9.32779
LeftShoulder1  6.36111e-015 -1.33558e-015 6.49777e-015
LeftArm  -42.8722 -7.72172 14.3928
LeftForeArm  -63.0539 -46.0044 34.8288
LeftHand  -2.77621 -6.7709 -7.07454
RightShoulder  -4.77083e-015 -6.36111e-015 -3.18055e-015
RightArm  95.2566 7.27936 -44.1576
RightForeArm  -21.5205 2.878 -16.1615
RightHand  -0.987758 6.01285 -0.760772
LeftUpLeg  45.4715 27.9828 13.5655
LeftLeg  -0.861603 -11.5222 -1.51437
LeftFoot  -10.391 3.52906 -17.3338
LeftToes  1.27222e-014 -5.20697e-012 1.80337e-011
111
root  -7.80447 37.554 4.54456 176.473 -3.5981 168.606
RightUpLeg  -5.99381 24.2064 13.0172
RightLeg  -81.5466 -13.8582 2.919
RightFoot  18.7585 5.33874 -16.4385
RightToes  -1.27222e-014 -6.36111e-015 6.36111e-015
Spine  -18.9525 -31.5944 -22.0309
Spine1  -5.99692 -20.9149 59.8219
HEad  10.0215 -16.2649 -8.78325
LeftShoulder1  6.36111e-015 -1.33558e-015 6.49777e-015
LeftArm  -42.2914 -14.167 8.4792
LeftForeArm  -66.8901 -46.3781 38.4942
LeftHand  -2.82242 -6.93036 -6.67677
RightShoulder  -4.77083e-015 -6.36111e-015 -3.18055e-015
RightArm  96.0342 2.04785 -45.6391
RightForeArm  -20.4967 1.17186 -14.8221
RightHand  -1.33775 7.27554 1.09087
LeftUpLeg  40.2396 26.9534 13.3342
LeftLeg  8.64208 -15.2179 -3.2976
LeftFoot  0.762656 6.12801 -20.0253
LeftToes  1.27222e-014 -5.20697e-012 1.80337e-011
112
root  -7.86716 37.818 4.55226 175.851 -7.40134 170.884
RightUpLeg  -5.02956 20.7985 14.1007
RightLeg  -72.6339 -15.8668 4.1734
RightFoot  17.4537 4.32298 -14.5791
RightToes  -1.27222e-014 -6.36111e-015 6.36111e-015
Spine  -20.1073 -32.4141 -18.7352
Spine1  -4.78737 -23.0962 64.7233
HEad  12.0526 -15.8644 -9.26804
LeftShoulder1  6.36111e-015 -1.33558e-015 6.49777e-015
LeftArm  -39.4761 -23.0706 1.17067
LeftForeArm  -62.9792 -46.5201 35.9717
LeftHand  -2.85652 -7.05221 -6.21892
RightShoulder  -4.77083e-015 -6.36111e-015 -3.18055e-015
RightArm  98.0619 -5.80813 -43.5531
RightForeArm  -17.9676 -0.958136 -12.8845
RightHand  -1.56858 7.93619 3.17927
LeftUpLeg  34.1716 20.601 13.128
LeftLeg  17.7499 -22.1418 -7.84001
LeftFoot  8.5946 8.70342 -22.7621
LeftToes  1.27222e-014 -5.20697e-012 1.80337e-011
113
root  -7.74096 37.8351 4.41964 175.03 -9.67451 171.212
RightUpLeg  -2.23463 18.1945 14.4301
RightLeg  -63.1008 -18.7679 5.62395
RightFoot  18.3251 3.46808 -13.3874
RightToes  -1.27222e-014 -6.36111e-015 6.36111e-015
Spine  -19.5666 -34.7805 -20.6893
Spine1  -4.55101 -24.4968 69.7393
HEad  14.3809 -15.7226 -9.95973
LeftShoulder1  6.36111e-015 -1.33558e-015 6.49777e-015
LeftArm  -36.2813 -33.1691 -6.15584
LeftForeArm  -50.6173 -46.4853 28.4435
LeftHand  -2.81606 -6.93711 -6.08086
RightShoulder  -4.77083e-015 -6.36111e-015 -3.18055e-015
RightArm  99.553 -13.5048 -40.8163
RightForeArm  -13.6246 -0.543084 -11.6872
RightHand  -1.77616 8.57151 5.36968
LeftUpLeg  29.716 16.6031 14.0711
LeftLeg  19.5678 -21.4134 -8.1096
LeftFoot  6.27532 8.41855 -23.3949
LeftToes  1.27222e-014 -5.20697e-012 1.80337e-011
114
root  -7.46699 37.6366 4.33853 175.695 -9.93463 168.707
RightUpLeg  1.4381 17.2061 12.4482
RightLeg  -55.3911 -18.6475 3.33756
RightFoot  18.4787 2.02876 -11.1508
RightToes  -1.27222e-014 -6.36111e-015 6.36111e-015
Spine  -17.6962 -38.755 -27.5319
Spine1  -5.03269 -25.4099 74.3682
HEad  16.6161 -15.6043 -10.6374
LeftShoulder1  6.36111e-015 -1.33558e-015 6.49777e-015
LeftArm  -32.7501 -42.6826 -12.4472
LeftForeArm  -35.0429 -45.9591 20.0833
LeftHand  -2.7334 -6.62817 -7.28649
RightShoulder  -4.77083e-015 -6.36111e-015 -3.18055e-015
RightArm  99.4624 -18.8308 -41.391
RightForeArm  -10.9158 0.567149 -11.209
RightHand  -1.88125 9.08604 6.19082
LeftUpLeg  25.0759 17.8652 15.7682
LeftLeg  11.389 -10.708 -2.29627
LeftFoot  1.72202 6.97606 -22.1023
LeftToes  1.27222e-014 -5.20697e-012 1.80337e-011
115
root  -7.24114 37.3254 4.39303 177.272 -8.86649 167.014
RightUpLeg  5.5811 15.029 10.8622
RightLeg  -54.1554 -16.2849 0.561225
RightFoot  15.9268 3.83277 -13.457
RightToes  -1.27222e-014 -6.36111e-015 6.36111e-015
Spine  -17.2912 -41.5716 -31.3655
Spine1  -5.85487 -25.9738 79.1868
HEad  18.2126 -14.1641 -12.1301
LeftShoulder1  6.36111e-015 -1.33558e-015 6.49777e-015
LeftArm  -27.5405 -50.2399 -17.7061
LeftForeArm  -21.7525 -45.5917 13.6936
LeftHand  -2.75266 -6.60157 -8.87803
RightShoulder  -4.77083e-015 -6.36111e-015 -3.18055e-015
RightArm  98.3636 -20.9553 -46.7823
RightForeArm  -13.6131 0.480165 -12.1535
RightHand  -1.69384 8.2187 4.69829
LeftUpLeg  20.5433 20.1775 18.4892
LeftLeg  -2.05421 -3.52618 -0.726423
LeftFoot  3.56773 6.39335 -19.2345
LeftToes  1.27222e-014 -5.20697e-012 1.80337e-011
116
root  -7.08604 36.8099 4.62124 177.972 -5.61736 166.954
RightUpLeg  9.4797 11.9267 10.9085
RightLeg  -58.6854 -16.2665 1.25787
RightFoot  9.97924 9.17877 -22.1937
RightToes  -1.27222e-014 -6.36111e-015 6.36111e-015
Spine  -17.0647 -42.3983 -32.2743
Spine1  -7.15303 -25.7572 83.0941
HEad  17.7276 -10.4442 -14.7409
LeftShoulder1  6.36111e-015 -1.33558e-015 6.49777e-015
LeftArm  -19.695 -55.0694 -23.0849
LeftForeArm  -12.3139 -44.8986 8.99039
LeftHand  -2.70559 -6.45427 -8.78876
RightShoulder  -4.77083e-015 -6.36111e-015 -3.18055e-015
RightArm  96.256 -21.5912 -52.9887
RightForeArm  -21.7229 0.593747 -14.8675
RightHand  -1.34895 6.99919 1.95866
LeftUpLeg  17.1751 20.0005 21.2892
LeftLeg  -13.8246 -6.55299 -1.22724
LeftFoot  7.97823 7.29615 -19.4522
LeftToes  1.27222e-014 -5.20697e-012 1.80337e-011
